<svg width="39" height="40" viewBox="0 0 39 40" fill="none" xmlns="http://www.w3.org/2000/svg">
<path d="M31.265 9.5668H30.615L25.1225 4.0743C24.6838 3.63555 23.9688 3.63555 23.5138 4.0743C23.075 4.51305 23.075 5.22805 23.5138 5.68305L27.3975 9.5668H11.6025L15.4862 5.68305C15.925 5.2443 15.925 4.5293 15.4862 4.0743C15.0475 3.63555 14.3325 3.63555 13.8775 4.0743L8.40125 9.5668H7.75125C6.28875 9.5668 3.25 9.5668 3.25 13.7268C3.25 15.3031 3.575 16.3431 4.2575 17.0256C4.6475 17.4318 5.11875 17.6431 5.6225 17.7568C6.09375 17.8706 6.5975 17.8868 7.085 17.8868H31.915C32.4187 17.8868 32.89 17.8543 33.345 17.7568C34.71 17.4318 35.75 16.4568 35.75 13.7268C35.75 9.5668 32.7113 9.5668 31.265 9.5668Z" fill="#FF9900"/>
<path d="M30.9562 20H7.9137C6.9062 20 6.14245 20.8937 6.30495 21.885L7.66995 30.2375C8.12495 33.0325 9.3437 36.25 14.7549 36.25H23.8712C29.3474 36.25 30.3224 33.5037 30.9074 30.4325L32.5487 21.9337C32.7437 20.9262 31.9799 20 30.9562 20ZM17.2412 30.4813C17.2412 31.115 16.7374 31.6187 16.1199 31.6187C15.4862 31.6187 14.9824 31.115 14.9824 30.4813V25.1187C14.9824 24.5012 15.4862 23.9812 16.1199 23.9812C16.7374 23.9812 17.2412 24.5012 17.2412 25.1187V30.4813ZM24.1962 30.4813C24.1962 31.115 23.6924 31.6187 23.0587 31.6187C22.4412 31.6187 21.9212 31.115 21.9212 30.4813V25.1187C21.9212 24.5012 22.4412 23.9812 23.0587 23.9812C23.6924 23.9812 24.1962 24.5012 24.1962 25.1187V30.4813Z" fill="#FF9900"/>
</svg>
